<svg width="334" height="311" viewBox="0 0 334 311" fill="none" xmlns="http://www.w3.org/2000/svg">
<path d="M210.016 228.061C211.416 212.461 212.316 199.661 212.816 189.661C213.316 179.661 214.016 162.761 214.816 138.761C215.616 114.761 216.016 98.1609 216.016 89.1609C216.016 86.4609 216.016 82.4609 215.916 77.0609L238.916 77.3609C245.116 77.3609 252.616 77.2609 261.716 76.9609L284.016 76.6609C290.202 76.5437 296.387 76.9115 302.516 77.7609C306.326 78.3485 310.052 79.3892 313.616 80.8609C316.575 82.1086 319.311 83.8313 321.716 85.9609C323.937 88.0879 325.855 90.5106 327.416 93.1609C328.95 96.0048 330.125 99.0278 330.916 102.161C331.681 105.37 332.051 108.662 332.016 111.961C332.012 115.935 331.542 119.896 330.616 123.761C329.654 127.278 328.207 130.644 326.316 133.761C324.524 136.651 322.298 139.249 319.716 141.461C317.518 143.326 315.139 144.967 312.616 146.361C309.649 147.83 306.573 149.067 303.416 150.061C306.916 150.861 309.616 151.561 311.716 152.261C314.011 153.12 316.22 154.191 318.316 155.461C320.763 156.975 322.985 158.826 324.916 160.961C326.925 163.104 328.609 165.53 329.916 168.161C331.257 170.792 332.265 173.58 332.916 176.461C333.605 179.614 333.94 182.834 333.916 186.061C334.01 192.84 332.43 199.538 329.316 205.561C326.482 211.239 322.162 216.043 316.816 219.461C311.358 222.982 305.229 225.332 298.816 226.361C292.116 227.461 278.016 228.061 256.516 228.061H210.016ZM243.316 206.461H268.216C272.191 206.521 276.166 206.32 280.116 205.861C282.886 205.469 285.604 204.764 288.216 203.761C290.327 202.877 292.339 201.771 294.216 200.461C295.794 199.187 297.117 197.626 298.116 195.861C299.29 193.889 300.198 191.771 300.816 189.561C301.504 187.224 301.841 184.797 301.816 182.361C301.877 179.266 301.263 176.194 300.016 173.361C298.851 170.739 297.066 168.44 294.816 166.661C292.452 164.712 289.686 163.311 286.716 162.561C283.616 161.661 278.916 161.261 272.616 161.261H244.916L243.316 206.461ZM246.016 139.661H263.616C271.216 139.661 276.216 139.561 278.816 139.161C281.619 138.719 284.368 137.982 287.016 136.961C289.784 135.949 292.259 134.265 294.216 132.061C296.129 129.851 297.62 127.309 298.616 124.561C299.501 121.919 299.941 119.147 299.916 116.361C299.932 113.72 299.422 111.103 298.416 108.661C297.515 106.247 295.956 104.134 293.916 102.561C291.695 100.956 289.181 99.8005 286.516 99.1609C282.332 98.3639 278.073 98.0285 273.816 98.1609H247.516L246.016 139.661Z" fill="url(#paint0_linear_242_8)"/>
<path d="M133.416 228.061L129.316 214.161C128.716 212.261 126.216 205.261 122.016 193.061L100.616 131.961L81.0157 77.0609L99.8157 77.3609L116.016 77.0609L119.416 89.3609C120.116 91.8609 121.216 95.2609 122.616 99.5609L149.316 180.661L155.616 201.361L161.516 187.861C163.016 184.461 166.016 178.061 170.616 168.361L205.216 95.5609C206.316 93.4609 207.316 91.1609 208.316 88.7609C209.316 86.3609 211.016 82.4609 213.216 77.0609L231.416 77.3609L248.716 77.0609L239.216 94.7609L179.116 214.261L172.716 228.061L153.616 227.861L133.416 228.061Z" fill="url(#paint1_linear_242_8)"/>
<path d="M137.316 300.361C60.4157 278.861 15.6157 199.061 37.1157 122.161C43.7856 98.5199 56.364 76.966 73.666 59.5296C90.968 42.0933 112.424 29.3485 136.013 22.496C159.601 15.6435 184.546 14.9087 208.497 20.361C232.449 25.8133 254.618 37.2731 272.916 53.6609C254.538 32.4419 230.755 16.5972 204.095 7.81002C177.434 -0.9772 148.891 -2.37878 121.498 3.75417C94.105 9.88712 68.8846 23.3256 48.516 42.6419C28.1475 61.9583 13.3916 86.4312 5.81573 113.461C-17.3843 196.061 30.9157 281.861 113.516 304.961C142.858 313.281 174.011 312.689 203.016 303.261C181.185 307.379 158.698 306.386 137.316 300.361Z" fill="url(#paint2_linear_242_8)"/>
<path d="M80.5158 66.1609C80.5158 66.1609 27.1158 156.261 103.216 238.961C103.216 238.961 189.516 324.861 286.216 232.761C286.216 232.761 244.316 315.661 144.716 290.961C144.716 290.961 51.0158 263.761 47.5158 161.261C47.5158 161.261 44.4158 109.561 80.5158 66.1609Z" fill="url(#paint3_linear_242_8)"/>
<defs>
<linearGradient id="paint0_linear_242_8" x1="209.976" y1="152.371" x2="333.926" y2="152.371" gradientUnits="userSpaceOnUse">
<stop stop-color="#662D91"/>
<stop offset="0.34" stop-color="#662D91"/>
<stop offset="0.9" stop-color="#1B1464"/>
</linearGradient>
<linearGradient id="paint1_linear_242_8" x1="81.0657" y1="152.591" x2="248.676" y2="152.591" gradientUnits="userSpaceOnUse">
<stop stop-color="#662D91"/>
<stop offset="1" stop-color="#1B1464"/>
</linearGradient>
<linearGradient id="paint2_linear_242_8" x1="77.726" y1="20.3052" x2="228.28" y2="288.589" gradientUnits="userSpaceOnUse">
<stop stop-color="#1B1464"/>
<stop offset="1" stop-color="#662D91"/>
</linearGradient>
<linearGradient id="paint3_linear_242_8" x1="185.774" y1="293.494" x2="149.264" y2="52.5279" gradientUnits="userSpaceOnUse">
<stop stop-color="#1B1464"/>
<stop offset="1" stop-color="#662D91"/>
</linearGradient>
</defs>
</svg>
