<svg id="Layer_1" data-name="Layer 1" xmlns="http://www.w3.org/2000/svg" xmlns:xlink="http://www.w3.org/1999/xlink" viewBox="0 0 505.1 444.4"><defs><style>.cls-1{fill:url(#linear-gradient);}.cls-2{fill:url(#linear-gradient-2);}.cls-3{fill:url(#linear-gradient-3);}.cls-4{fill:url(#linear-gradient-4);}.cls-5{font-size:85px;fill:#1b1464;font-family:Anton-Regular, Anton;}.cls-6{fill:#000;}.cls-7{fill:#662d91;}</style><linearGradient id="linear-gradient" x1="599.46" y1="439.31" x2="723.41" y2="439.31" gradientUnits="userSpaceOnUse"><stop offset="0" stop-color="#662d91"/><stop offset="0.34" stop-color="#662d91"/><stop offset="0.9" stop-color="#1b1464"/></linearGradient><linearGradient id="linear-gradient-2" x1="470.55" y1="439.53" x2="638.16" y2="439.53" gradientUnits="userSpaceOnUse"><stop offset="0" stop-color="#662d91"/><stop offset="1" stop-color="#1b1464"/></linearGradient><linearGradient id="linear-gradient-3" x1="-14.33" y1="509.91" x2="293.31" y2="509.91" gradientTransform="translate(918.9 70.2) rotate(60.7)" gradientUnits="userSpaceOnUse"><stop offset="0" stop-color="#1b1464"/><stop offset="1" stop-color="#662d91"/></linearGradient><linearGradient id="linear-gradient-4" x1="2264.05" y1="99.45" x2="2507.45" y2="99.45" gradientTransform="matrix(-0.15, -0.99, 0.99, -0.15, 816.41, 2836.76)" xlink:href="#linear-gradient-3"/></defs><path class="cls-1" d="M599.5,515c1.4-15.6,2.3-28.4,2.8-38.4s1.2-26.9,2-50.9,1.2-40.6,1.2-49.6c0-2.7,0-6.7-.1-12.1l23,.3c6.2,0,13.7-.1,22.8-.4l22.3-.3a118.4,118.4,0,0,1,18.5,1.1,48.4,48.4,0,0,1,11.1,3.1,29.5,29.5,0,0,1,8.1,5.1,33.5,33.5,0,0,1,5.7,7.2,39.1,39.1,0,0,1,3.5,9,40.4,40.4,0,0,1,1.1,9.8,50.8,50.8,0,0,1-1.4,11.8,39.2,39.2,0,0,1-4.3,10,33.1,33.1,0,0,1-6.6,7.7,43.4,43.4,0,0,1-7.1,4.9,64.2,64.2,0,0,1-9.2,3.7c3.5.8,6.2,1.5,8.3,2.2a39.3,39.3,0,0,1,6.6,3.2,30.6,30.6,0,0,1,6.6,5.5,30.1,30.1,0,0,1,5,7.2,35.5,35.5,0,0,1,3,8.3,43.4,43.4,0,0,1,1,9.6,41.2,41.2,0,0,1-4.6,19.5,35.1,35.1,0,0,1-12.5,13.9,46.9,46.9,0,0,1-18,6.9c-6.7,1.1-20.8,1.7-42.3,1.7H599.5Zm33.3-21.6h24.9a91.1,91.1,0,0,0,11.9-.6,37.1,37.1,0,0,0,8.1-2.1,32.2,32.2,0,0,0,6-3.3,16.1,16.1,0,0,0,3.9-4.6,26,26,0,0,0,2.7-6.3,24.6,24.6,0,0,0,1-7.2,21.3,21.3,0,0,0-1.8-9,17.7,17.7,0,0,0-5.2-6.7,20.7,20.7,0,0,0-8.1-4.1c-3.1-.9-7.8-1.3-14.1-1.3H634.4Zm2.7-66.8h17.6c7.6,0,12.6-.1,15.2-.5a40.2,40.2,0,0,0,8.2-2.2,17.8,17.8,0,0,0,7.2-4.9,23.9,23.9,0,0,0,4.4-7.5,25.1,25.1,0,0,0,1.3-8.2,19.9,19.9,0,0,0-1.5-7.7,13.8,13.8,0,0,0-4.5-6.1,21,21,0,0,0-7.4-3.4,58.2,58.2,0,0,0-12.7-1H637Z" transform="translate(-303.9 -286.9)"/><path class="cls-2" d="M522.9,515l-4.1-13.9c-.6-1.9-3.1-8.9-7.3-21.1l-21.4-61.1L470.5,364l18.8.3,16.2-.3,3.4,12.3c.7,2.5,1.8,5.9,3.2,10.2l26.7,81.1,6.3,20.7,5.9-13.5c1.5-3.4,4.5-9.8,9.1-19.5l34.6-72.8c1.1-2.1,2.1-4.4,3.1-6.8s2.7-6.3,4.9-11.7l18.2.3,17.3-.3-9.5,17.7L568.6,501.2,562.2,515l-19.1-.2Z" transform="translate(-303.9 -286.9)"/><path class="cls-3" d="M526.8,587.3C449.9,565.8,405.1,486,426.6,409.1a144.7,144.7,0,0,1,235.8-68.5,155.4,155.4,0,0,0-267.1,59.8C372.1,483,420.4,568.8,503,591.9a153.8,153.8,0,0,0,89.5-1.7A143.9,143.9,0,0,1,526.8,587.3Z" transform="translate(-303.9 -286.9)"/><path class="cls-4" d="M470,353.1s-53.4,90.1,22.7,172.8c0,0,86.3,85.9,183-6.2,0,0-41.9,82.9-141.5,58.2,0,0-93.7-27.2-97.2-129.7C437,448.2,433.9,396.5,470,353.1Z" transform="translate(-303.9 -286.9)"/><text class="cls-5" transform="translate(0 416.7)">VENTURE<tspan class="cls-6" x="266.6" y="0"> </tspan><tspan class="cls-7" x="286.5" y="0">BRIDGE</tspan></text></svg>